<svg width="22" height="14" viewBox="0 0 22 14" fill="none" xmlns="http://www.w3.org/2000/svg">
<path fill-rule="evenodd" clip-rule="evenodd" d="M2.95123 3V11C2.95123 11.5523 3.39895 12 3.95123 12H15.5714C15.8634 12 16.1407 11.8724 16.3307 11.6508L19.7593 7.65079C20.0802 7.2763 20.0802 6.7237 19.7593 6.34921L16.3307 2.34921C16.1407 2.12756 15.8634 2 15.5714 2L3.95123 2C3.39895 2 2.95123 2.44772 2.95123 3ZM0.951233 3V11C0.951233 12.6569 2.29438 14 3.95123 14H15.5714C16.4472 14 17.2793 13.6173 17.8492 12.9524L21.2778 8.95237C22.2407 7.8289 22.2407 6.1711 21.2778 5.04763L17.8492 1.04763C17.2793 0.382688 16.4472 0 15.5714 0L3.95123 0C2.29438 0 0.951233 1.34315 0.951233 3Z" fill="#616161"/>
<path fill-rule="evenodd" clip-rule="evenodd" d="M13.9512 8C14.5035 8 14.9512 7.55228 14.9512 7C14.9512 6.44772 14.5035 6 13.9512 6C13.3989 6 12.9512 6.44772 12.9512 7C12.9512 7.55228 13.3989 8 13.9512 8ZM13.9512 10C15.6081 10 16.9512 8.65685 16.9512 7C16.9512 5.34315 15.6081 4 13.9512 4C12.2944 4 10.9512 5.34315 10.9512 7C10.9512 8.65685 12.2944 10 13.9512 10Z" fill="#616161"/>
</svg>
