<svg width="30" height="32" viewBox="0 0 30 32" fill="none" xmlns="http://www.w3.org/2000/svg">
<path fill-rule="evenodd" clip-rule="evenodd" d="M29.0268 15.1906C29.105 14.6206 29.1453 14.0394 29.1453 13.4493C29.1453 6.02145 22.7605 0 14.8844 0C7.00834 0 0.623535 6.02145 0.623535 13.4493C0.623535 20.8771 7.00834 26.8986 14.8844 26.8986L14.8845 26.8985V32C19.0198 30.6473 27.7309 24.8348 29.0295 15.1884L29.0268 15.1906ZM16.1593 9.85509H6.76798L6.30421 8.46379H16.1593C17.9522 8.46379 19.4057 9.91724 19.4057 11.7102V12.2899C19.4057 13.0583 20.0286 13.6812 20.797 13.6812H21.3767C22.6573 13.6812 23.6955 14.7194 23.6955 16V18.087H22.3042V16C22.3042 15.4878 21.8889 15.0725 21.3767 15.0725H20.797C19.2602 15.0725 18.0144 13.8267 18.0144 12.2899V11.7102C18.0144 10.6856 17.1838 9.85509 16.1593 9.85509ZM14.0729 12.7536H8.15987L8.62363 14.1449H14.0729V12.7536ZM9.7832 16.9275H14.0731V18.3188H10.247L9.7832 16.9275ZM18.1308 19.942C18.9632 19.942 19.638 19.2672 19.638 18.4348C19.638 17.6023 18.9632 16.9275 18.1308 16.9275C17.2984 16.9275 16.6235 17.6023 16.6235 18.4348C16.6235 19.2672 17.2984 19.942 18.1308 19.942Z" fill="black"/>
</svg>
