<svg width="22" height="20" viewBox="0 0 22 20" fill="none" xmlns="http://www.w3.org/2000/svg">
<path fill-rule="evenodd" clip-rule="evenodd" d="M5.2609 0L0.469238 0L0.469238 2L3.68764 2L6.45644 14.6776H6.46924V15H19.4692V14.7519L21.6625 5.09095L22 4L6.12444 4L5.55409 1.38852L5.2609 0ZM19.4561 6L6.56124 6L8.09005 13H17.867L19.4561 6Z" fill="#616161"/>
<path d="M9.46924 20C10.5738 20 11.4692 19.1046 11.4692 18C11.4692 16.8954 10.5738 16 9.46924 16C8.36467 16 7.46924 16.8954 7.46924 18C7.46924 19.1046 8.36467 20 9.46924 20Z" fill="#616161"/>
<path d="M18.4692 18C18.4692 19.1046 17.5738 20 16.4692 20C15.3647 20 14.4692 19.1046 14.4692 18C14.4692 16.8954 15.3647 16 16.4692 16C17.5738 16 18.4692 16.8954 18.4692 18Z" fill="#616161"/>
</svg>
