<svg width="120" height="120" viewBox="0 0 120 120" fill="none" xmlns="http://www.w3.org/2000/svg">
<rect x="16" y="16" width="88" height="88" rx="44" fill="#C5DCFA" fill-opacity="0.5"/>
<path fill-rule="evenodd" clip-rule="evenodd" d="M33.3333 41.3335C33.3333 36.9152 36.915 33.3335 41.3333 33.3335H78.6666C83.0849 33.3335 86.6666 36.9152 86.6666 41.3335V81.3335C86.6666 84.279 84.2788 86.6668 81.3333 86.6668H49.7271C49.5971 86.6763 49.4657 86.6812 49.3333 86.6812H38.6666C35.7211 86.6812 33.3333 84.2933 33.3333 81.3478V41.3335ZM41.3333 38.6668H78.6666C80.1393 38.6668 81.3333 39.8607 81.3333 41.3335V65.3335H70.6666C67.7211 65.3335 65.3333 67.7213 65.3333 70.6668V73.3335H54.6666V70.6812C54.6666 67.7356 52.2788 65.3478 49.3333 65.3478H38.6666V41.3335C38.6666 39.8607 39.8605 38.6668 41.3333 38.6668Z" fill="#1672EC"/>
</svg>
