<svg width="14" height="18" viewBox="0 0 14 18" fill="none" xmlns="http://www.w3.org/2000/svg">
<path fill-rule="evenodd" clip-rule="evenodd" d="M11 4C11 6.20914 9.20914 8 7 8C4.79086 8 3 6.20914 3 4C3 1.79086 4.79086 0 7 0C9.20914 0 11 1.79086 11 4ZM9 4C9 5.10457 8.10457 6 7 6C5.89543 6 5 5.10457 5 4C5 2.89543 5.89543 2 7 2C8.10457 2 9 2.89543 9 4Z" fill="#616161"/>
<path d="M12 12C12 11.4477 11.5523 11 11 11H3C2.44772 11 2 11.4477 2 12V18H0V12C0 10.3431 1.34315 9 3 9H11C12.6569 9 14 10.3431 14 12V18H12V12Z" fill="#616161"/>
</svg>
